<svg width="70" height="87" viewBox="0 0 70 87" fill="none" xmlns="http://www.w3.org/2000/svg">
<g clip-path="url(#clip0_110_3)">
<path d="M62.053 23.2534L62.7748 20.9401L60.3869 21.015C60.1852 21.015 58.7188 20.9733 57.2961 19.9406C57.4021 19.951 57.5081 19.9656 57.6163 19.9656C59.0806 19.9656 60.4972 19.0827 61.0649 17.8211L62.0925 15.5411C60.805 15.5577 59.6277 15.3953 59.6277 15.3953C59.6173 15.3933 58.6896 15.2745 57.6163 14.1773C56.8467 13.3903 55.8941 12.9739 54.8624 12.9739C54.411 12.9739 54.0076 13.055 53.6602 13.1654C53.7142 12.9801 53.7662 12.7927 53.7954 12.5991C54.124 10.4649 52.7513 8.83668 52.7513 8.83871L50.9561 6.61292L49.8435 9.22805C49.8393 9.2364 49.5584 9.84851 49.0551 10.1484C48.9032 9.38006 48.5308 8.51595 47.7343 7.68942C46.2325 6.13194 44.4041 5.90083 43.4474 5.90083C43.0044 5.90083 42.6882 5.94867 42.6112 5.9612L40.4439 6.388C40.5687 5.90285 40.8349 5.05962 41.3217 4.29967L42.5177 2.43411L39.5078 2.77763L38.549 0.739182L36.6936 1.69695L34.9776 0L33.2658 1.69695L31.4041 0.739182L30.4473 2.77763L27.4397 2.43411L28.6378 4.29967C29.1245 5.05962 29.3907 5.90083 29.5134 6.38598L27.446 5.9779L27.3752 5.96537C27.2712 5.94867 26.9572 5.90083 26.512 5.90083C25.5553 5.90083 23.7269 6.13398 22.2292 7.68942C21.4305 8.51391 21.0582 9.38006 20.9044 10.1484C20.4052 9.85268 20.1264 9.24893 20.1264 9.24893L19.0116 6.61913L17.1873 8.85948C16.9648 9.14894 15.8646 10.6793 16.164 12.6032C16.1952 12.7948 16.2452 12.9822 16.2993 13.1675C15.954 13.0572 15.5504 12.9758 15.0991 12.9758C14.0674 12.9758 13.1147 13.3923 12.3431 14.1793C11.2739 15.2726 10.3504 15.3953 10.3588 15.3953C10.3588 15.3953 9.38318 15.5703 7.8731 15.5432L8.89445 17.8231C9.46224 19.0869 10.8809 19.9677 12.3431 19.9677C12.4533 19.9677 12.5593 19.9532 12.6675 19.9427C11.2489 20.9755 9.78264 21.0172 9.60581 21.0191L7.17215 20.9401L7.90848 23.2513C8.27872 24.4422 9.51633 26.4161 11.8875 26.6285C11.6296 27.7113 11.0577 28.9231 9.80134 29.4456L7.98968 30.1931L8.97765 31.915C9.53503 32.8436 10.8435 33.9305 12.7071 33.9305C13.1105 33.9285 13.4995 33.8889 13.874 33.8098C13.9696 34.2345 14.0902 34.6593 14.2317 35.0799C14.7871 36.7331 14.3086 37.8866 14.3025 37.8991L13.408 39.775L15.4048 40.3018C15.4297 40.3102 16.033 40.4747 16.7879 40.4747C17.1312 40.4747 17.4578 40.4393 17.7657 40.3663C17.9986 40.3123 18.2212 40.2394 18.4353 40.152C18.6933 40.6163 19.0074 41.0389 19.3735 41.418C20.6527 42.7317 22.4644 43.398 24.7607 43.398H24.769L26.4081 43.3771L23.0218 44.7847L25.5927 46.0277C26.5265 46.4838 27.6353 47.023 28.7625 47.4352L28.4423 48.3139L29.3284 48.7179C29.4074 48.7533 31.1109 49.5174 33.9439 49.6798C33.9439 49.6798 34.6281 49.711 35.0047 49.711C35.3812 49.711 36.0572 49.6777 36.0572 49.6777C38.8714 49.5111 40.5624 48.7553 40.6415 48.7179L41.5296 48.3118L41.2052 47.4311C42.3658 47.0063 43.5139 46.4463 44.4083 46.0089L46.9314 44.7826L43.5555 43.373L45.2009 43.3938C47.4992 43.3938 49.313 42.7276 50.5901 41.4116C50.9542 41.0348 51.2682 40.612 51.5282 40.1478C51.7425 40.2353 51.9671 40.3082 52.2001 40.3622C52.5057 40.4351 52.8323 40.4705 53.1756 40.4705C53.9181 40.4705 54.5275 40.306 54.5442 40.3018L56.5493 39.7709L55.6756 37.9303C55.6549 37.8824 55.1766 36.731 55.7318 35.0758C55.8733 34.653 55.9918 34.2283 56.0876 33.8056C56.464 33.8847 56.8572 33.9263 57.2628 33.9263C59.636 33.9263 60.7738 32.2545 60.9943 31.8921L61.9719 30.1889L60.1602 29.4435C58.9018 28.9209 58.3319 27.707 58.0761 26.6264C60.414 26.4265 61.6703 24.4526 62.053 23.2534ZM29.6716 7.18339L29.6466 7.1897L29.6673 7.16262L29.6716 7.18339Z" fill="white"/>
<path d="M34.98 7.08136C33.0621 7.08339 31.6248 7.7122 31.3107 8.45138L34.98 9.90053L38.6491 8.45138C38.3371 7.7122 36.8998 7.08339 34.98 7.08136Z" fill="white"/>
<path d="M35.0173 45.4447H35.0132H34.9819H34.9467H34.9445C33.7818 45.4531 32.1822 45.2136 31.4105 44.9887L30.4829 47.5018C31.0944 47.7205 33.1661 48.137 34.9819 48.137C36.7935 48.137 38.8674 47.7184 39.4768 47.5018L38.5513 44.9887C37.7774 45.2156 36.18 45.4531 35.0173 45.4447Z" fill="white"/>
<path d="M42.0375 42.9462C41.3469 43.3377 39.8057 43.9249 38.9092 44.1977L39.6621 46.2735C41.0495 45.8946 42.1936 45.4511 43.1398 44.9763L41.5778 44.4558L42.0375 42.9462Z" fill="white"/>
<path d="M27.9248 42.9462L28.3866 44.4558L26.8224 44.9763C27.7667 45.4511 28.9169 45.8946 30.298 46.2735L31.0511 44.1977C30.1587 43.9249 28.6154 43.3357 27.9248 42.9462Z" fill="white"/>
<path d="M34.98 4.67855C36.4256 4.67855 37.8441 5.02421 38.9341 5.63227C39.0339 5.29698 39.1732 4.89093 39.3627 4.46627L38.9508 4.51616L38.5181 4.56198L38.3351 4.16845L37.784 3.00247L36.7792 3.52722L36.3882 3.72709L36.0762 3.4189L34.9842 2.33618L33.8943 3.4189L33.5822 3.72709L33.1911 3.52722L32.1804 3.00247L31.6354 4.16845L31.4482 4.56198L31.0155 4.51616L30.6037 4.46627C30.7931 4.89308 30.9303 5.29698 31.0322 5.63227C32.1242 5.02421 33.5386 4.67855 34.98 4.67855Z" fill="white"/>
<path d="M57.051 18.1544C57.2381 18.219 57.4295 18.2481 57.6188 18.2481C58.4363 18.2481 59.2267 17.7192 59.4992 17.1133C59.4992 17.1133 57.9995 17.0217 56.3875 15.383C55.8737 14.8521 55.3309 14.6938 54.8649 14.6938C54.1411 14.6938 53.5981 15.0769 53.5981 15.0769C55.5451 16.1139 55.9424 17.7796 57.051 18.1544Z" fill="white"/>
<path d="M12.3417 18.2481C12.5309 18.2481 12.7223 18.219 12.9053 18.1544C14.0182 17.7796 14.4175 16.1139 16.3644 15.0769C16.3644 15.0769 15.8194 14.6938 15.0997 14.6938C14.6317 14.6938 14.0888 14.8521 13.573 15.383C11.963 17.0217 10.4634 17.1133 10.4634 17.1133C10.7317 17.7192 11.5241 18.2481 12.3417 18.2481Z" fill="white"/>
<path d="M57.5793 24.9232C57.6127 24.9251 57.6419 24.9252 57.6771 24.9252C59.7176 24.9252 60.4103 22.7369 60.4103 22.7369H60.3707C59.9963 22.7369 56.9616 22.6494 54.8171 19.9197C53.4048 18.125 52.2484 16.5467 49.9624 15.9262L49.7378 15.8866L49.6878 15.6577C49.6255 15.3078 49.8646 14.9809 50.4075 14.627C53.5608 12.5594 51.4206 9.9234 51.4206 9.9234C51.4206 9.9234 50.52 12.0326 48.5043 12.0326C48.4565 12.0326 48.4045 12.0305 48.3546 12.0305C48.1258 12.0181 47.9052 12.0097 47.6828 11.9619L47.3104 11.889C47.3104 11.889 47.8846 10.3253 46.4992 8.88855C45.455 7.80381 44.1842 7.62054 43.45 7.62054C43.0797 7.62054 42.8447 7.66851 42.8447 7.66851C43.5414 8.58046 44.0448 10.0921 43.2399 11.0248C42.5452 11.8265 40.8479 11.866 40.8479 13.0612C40.8479 13.5671 41.32 14.1585 42.1687 14.6894C44.7208 16.2989 47.2543 18.4332 48.3067 21.2939C49.6234 24.8628 48.1404 27.2301 46.0229 28.5877C46.0229 28.5877 46.6865 29.1998 47.6494 29.2769C47.845 29.2956 48.0363 29.304 48.2153 29.304C50.2474 29.304 51.2978 28.3503 51.2978 28.3503C51.2978 28.3503 51.1251 29.6683 50.0664 30.8927C49.0909 32.0232 47.8097 32.6874 45.8565 32.7166C45.8565 32.7166 45.7941 33.6244 46.6593 34.4093C47.2127 34.9049 48.4919 35.0673 48.4919 35.0673C48.4919 35.0673 46.0978 35.5524 45.8336 39.0921C45.6901 41.0097 45.2013 41.6759 45.2013 41.6759H45.2449C50.8007 41.6759 50.6571 36.9059 50.6571 36.9059C50.6571 36.9059 51.044 38.3175 52.5937 38.686C52.7808 38.736 52.9805 38.7548 53.1719 38.7548C53.6711 38.7548 54.1037 38.6382 54.1037 38.6382C54.1037 38.6382 53.2925 36.9246 54.0974 34.528C54.7651 32.5396 54.6569 31.0654 54.6569 31.0654C54.6569 31.0654 55.4059 32.198 57.2612 32.2085H57.2799C58.8253 32.2085 59.4992 31.0363 59.4992 31.0363C55.7948 29.4976 56.1608 24.5297 56.1608 24.5297C56.1608 24.5297 56.6413 24.8878 57.5793 24.9232ZM56.4644 30.1117C54.9586 29.3685 54.006 27.3946 53.775 26.6826C53.5256 30.5969 51.616 33.3141 49.3842 35.9294C48.2257 37.2848 47.822 38.6027 47.822 38.6027C47.822 38.6027 48.0447 37.1099 49.0472 35.8938C51.1294 33.3891 53.1073 30.2721 53.2551 26.6679C53.3569 24.1527 52.7101 22.1123 51.7013 20.432C52.2649 22.183 52.186 24.3277 50.2703 26.3285C50.2703 26.3285 54.0829 21.7542 48.752 17.0652C46.6178 15.2807 44.284 14.1793 43.0819 13.3984C47.4248 14.8164 49.5444 13.2548 49.5444 13.2548C48.157 14.4583 46.362 14.4375 45.2492 14.2647C45.5508 14.4126 45.8648 14.5666 46.2039 14.7478C49.8646 16.7382 53.1552 20.0134 53.7168 24.5504V24.515C54.5696 28.9687 56.4644 30.1117 56.4644 30.1117Z" fill="white"/>
<path d="M21.4684 35.0673C21.4684 35.0673 22.7476 34.9069 23.3009 34.4093C24.164 33.6244 24.1038 32.7166 24.1038 32.7166C22.1485 32.6896 20.8694 32.0232 19.8876 30.8947C18.8373 29.6704 18.6625 28.3524 18.6625 28.3524C18.6625 28.3524 19.7128 29.306 21.7429 29.306C21.926 29.306 22.1153 29.2977 22.3108 29.2789C23.2738 29.2019 23.9394 28.5898 23.9394 28.5898C21.822 27.2323 20.3369 24.8628 21.6515 21.2939C22.7061 18.4352 25.2374 16.2989 27.7895 14.6894C28.6382 14.1585 29.1103 13.5692 29.1103 13.0612C29.1103 11.866 27.4152 11.8265 26.7205 11.0248C25.9154 10.0921 26.4209 8.57832 27.1156 7.66851C27.1156 7.66851 26.8847 7.62054 26.5123 7.62054C25.7802 7.62054 24.5093 7.80381 23.4652 8.88855C22.0758 10.3253 22.6519 11.889 22.6519 11.889L22.2796 11.9619C22.0571 12.0097 21.8345 12.0181 21.6077 12.0305C21.5558 12.0305 21.5099 12.0326 21.4601 12.0326C19.4404 12.0326 18.5439 9.92554 18.5439 9.92554C18.5439 9.92554 16.4035 12.5614 19.5548 14.629C20.0977 14.983 20.3348 15.3099 20.2724 15.6597L20.2224 15.8888L19.9936 15.9283C17.7119 16.5487 16.5534 18.1271 15.1411 19.9219C13.0007 22.6474 9.97015 22.7369 9.59162 22.7369H9.54996C9.54996 22.7369 10.2426 24.9252 12.2831 24.9252C12.3163 24.9252 12.3455 24.9251 12.3808 24.9232C13.319 24.8897 13.8016 24.5297 13.8016 24.5297C13.8016 24.5297 14.1634 29.4955 10.4631 31.0363C10.4631 31.0363 11.1371 32.2085 12.6825 32.2085H12.7012C14.5586 32.198 15.3054 31.0654 15.3054 31.0654C15.3054 31.0654 15.1972 32.5396 15.8627 34.528C16.6678 36.9246 15.8608 38.6382 15.8608 38.6382C15.8608 38.6382 16.2933 38.7548 16.7905 38.7548C16.9838 38.7548 17.1816 38.736 17.3666 38.686C18.9141 38.3175 19.3031 36.9059 19.3031 36.9059C19.3031 36.9059 19.1616 41.6759 24.7174 41.6759H24.7569C24.7569 41.6759 24.2702 41.0097 24.1288 39.0921C23.8624 35.5524 21.4684 35.0673 21.4684 35.0673ZM20.5761 35.9294C18.3442 33.3141 16.4369 30.5969 16.1851 26.6826C15.9544 27.3924 15.0058 29.3685 13.5 30.1117C13.5 30.1117 15.3927 28.9687 16.2434 24.515V24.5504C16.8072 20.0156 20.0956 16.7382 23.7585 14.7478C24.0934 14.5644 24.4115 14.4104 24.7111 14.2647C23.5983 14.4375 21.8033 14.4583 20.416 13.2548C20.416 13.2548 22.5355 14.8164 26.8763 13.3984C25.6742 14.1793 23.3425 15.2807 21.2084 17.0652C15.8753 21.7542 19.69 26.3285 19.69 26.3285C17.7722 24.3255 17.6953 22.183 18.259 20.432C17.2481 22.1142 16.6032 24.1527 16.7073 26.6679C16.8528 30.2721 18.8309 33.3891 20.909 35.8938C21.9135 37.1078 22.1402 38.6027 22.1402 38.6027C22.1402 38.6027 21.7325 37.2848 20.5761 35.9294Z" fill="white"/>
<path d="M30.8722 17.6274C30.9637 17.7252 31.0531 17.8314 31.1384 17.9376C31.1593 17.9626 31.178 17.9855 31.1986 18.0146C31.2777 18.1209 31.359 18.2333 31.4358 18.3478C31.4525 18.3707 31.4691 18.3978 31.4878 18.4248C31.5814 18.5664 31.6688 18.7122 31.7562 18.862C32.557 20.2468 33.8403 21.0733 34.9781 21.0755C36.1179 21.0733 37.3972 20.2468 38.2021 18.862C38.2915 18.708 38.3809 18.5582 38.4745 18.4186C38.4892 18.3978 38.5037 18.379 38.5161 18.3581C38.5952 18.2396 38.6784 18.1229 38.7658 18.0105C38.7845 17.9855 38.8011 17.9647 38.8177 17.9439C38.9072 17.8336 38.9987 17.7252 39.0923 17.6253C39.109 17.6086 39.1214 17.5941 39.136 17.5816C39.5437 17.1631 40.0305 16.8445 40.6669 16.6675L40.3841 16.503H40.3673L39.24 15.8471L38.0815 15.1829L34.9864 16.8694L34.9781 16.8632L34.9719 16.8694L31.8747 15.1829L30.7182 15.845L29.5888 16.501H29.5764L29.2892 16.6654C29.9278 16.8424 30.4125 17.1568 30.8223 17.5754C30.841 17.5921 30.8534 17.6108 30.8722 17.6274ZM33.726 17.492H35.0364H36.3446V18.3915C36.0368 18.0146 35.4378 18.0917 35.4378 18.0917V19.3889C35.4378 19.3889 35.4607 20.026 35.6832 20.303H35.0364H34.3874C34.614 20.0281 34.6349 19.3889 34.6349 19.3889V18.0917C34.6349 18.0917 34.038 18.0146 33.726 18.3915V17.492Z" fill="white"/>
<path d="M34.7118 15.7471V10.4815L31.363 9.34454L32.247 14.448L34.7118 15.7471ZM33.9921 11.7745V12.6198L33.8299 12.5448C33.8216 12.5386 33.5844 12.4844 33.1685 12.1555C32.482 11.6225 32.4696 11.1311 32.4696 11.1311L33.9921 11.7745Z" fill="white"/>
<path d="M37.7155 14.448L38.5954 9.34454L35.2487 10.4815V15.7471L37.7155 14.448ZM35.9683 11.7745L37.4909 11.1332C37.4909 11.1332 37.4784 11.6245 36.7899 12.1576C36.376 12.4866 36.1367 12.5406 36.1285 12.547L35.9662 12.6219V11.7745H35.9683Z" fill="white"/>
<path d="M29.9756 27.9548C30.3021 28.0735 30.6974 28.0986 30.8992 28.0986C30.9075 28.0735 30.9179 28.0423 30.9283 28.0049C30.947 27.9444 30.9636 27.8862 30.9762 27.8196C31.0323 27.528 31.0531 27.197 31.0572 26.9846C30.92 26.8992 30.7265 26.7472 30.6183 26.5203C30.4935 26.258 30.3167 26.1372 30.0567 26.1372C29.7199 26.1372 29.3579 26.3392 29.204 26.4349C29.0813 27.1616 29.6158 27.8216 29.9756 27.9548Z" fill="white"/>
<path d="M37.383 25.1603C36.761 25.837 35.5443 27.0155 35.4839 27.0759L35.4111 27.1508L31.5652 27.0904C31.563 27.4716 31.5007 27.7964 31.4403 28.0336C31.43 28.0733 31.4196 28.115 31.4091 28.1565L35.9851 28.979C36.4615 28.6457 37.7719 27.688 38.2794 27.3133C37.9091 26.7719 37.8739 26.1307 37.9571 25.6788C37.7157 25.5226 37.5306 25.3478 37.383 25.1603Z" fill="white"/>
<path d="M37.9042 20.5301C37.0182 21.411 36.1674 21.7357 35.4083 21.8107C35.271 21.8252 35.1316 21.8335 34.9902 21.8335H34.9798H34.9714C34.83 21.8335 34.6885 21.8252 34.5513 21.8107C34.4181 21.7982 34.2789 21.7773 34.1394 21.7461C34.0895 21.944 34.0271 22.3583 34.2061 22.7497C34.3662 23.1058 34.6927 23.3701 35.169 23.5451L35.3292 23.6076L35.3313 23.7804C35.3313 23.8325 35.3687 24.9526 36.5897 25.2628C36.7894 25.0567 36.9703 24.8714 37.1035 24.7174C36.8538 24.1303 36.9848 23.5305 37.3468 23.237C37.3301 23.2994 37.1722 24.7694 38.3494 25.3149L38.5427 25.4066L38.4846 25.6126C38.4659 25.6752 38.0728 27.0972 39.4975 27.626L39.7493 27.7219L39.6369 27.9676C39.6119 28.0217 39.0524 29.3126 40.369 30.0455H43.2249V27.776C42.2099 27.6512 41.7793 26.8348 41.6691 26.256C41.1968 26.1749 40.8309 25.9709 40.5812 25.6376C39.9822 24.8486 40.498 24.126 40.5043 24.0864C40.5021 24.0928 40.5043 24.8631 40.9784 25.3379C41.2136 25.5668 41.4922 25.7438 41.9145 25.7834L42.1224 25.8021L42.1412 26.0145C42.1454 26.0603 42.2598 27.1015 43.227 27.2659L43.2249 22.6311C43.2249 21.9127 43.435 21.1902 43.6867 20.5239H37.9042V20.5301Z" fill="white"/>
<path d="M30.2192 22.6533L30.1422 25.6058L30.4771 25.6558L31.2965 22.8241L30.8805 21.9537L30.2192 22.6533Z" fill="white"/>
<path d="M39.2544 36.1939C39.2794 36.1939 39.3085 36.198 39.3356 36.2043C39.8451 36.3501 39.9742 38.1905 40.8686 38.3551C40.9558 38.3739 41.037 38.378 41.1077 38.378C41.3656 38.378 41.5195 38.2676 41.686 38.072C41.686 38.072 41.2367 37.364 40.8997 36.8872C40.4525 36.2626 40.1052 35.5068 39.2731 35.5068C39.2544 35.5068 39.2294 35.5068 39.2087 35.5088C38.9341 35.5234 38.7657 35.6568 38.7657 35.6568C38.4287 35.4443 38.1146 35.3714 37.8296 35.3714C37.3076 35.3714 36.902 35.6108 36.7002 35.6108H36.6919L34.8323 35.4276C34.5412 35.4005 34.3124 35.107 34.2292 34.9925C34.2083 34.9612 34.1979 34.9424 34.1979 34.9424C34.1979 34.8925 34.1979 34.8404 34.1938 34.7946C34.1314 33.2726 32.9542 32.6209 32.536 32.6105C32.536 32.6105 32.586 32.3211 32.4716 32.2108L32.0619 32.7083L30.716 32.0317L31.6749 33.1539L30.8616 34.068C30.7597 34.1721 30.7722 34.3137 30.8138 34.3719L31.1653 34.6822L31.6104 34.4115C31.6334 34.3949 31.6729 34.3907 31.7227 34.3907C31.8454 34.3907 32.0306 34.422 32.1969 34.422C32.3779 34.422 32.536 34.3823 32.5548 34.2117C32.4986 34.7759 31.9765 35.7566 32.3198 36.527L32.5735 37.1079L30.9303 36.8705L30.1607 38.1718C29.9236 38.605 29.886 39.0735 30.1148 39.3274L30.402 39.6877C30.402 39.6877 30.8055 39.2588 30.897 38.9777L30.766 38.834C30.6557 38.7132 30.662 38.605 30.7286 38.4738L31.211 37.6721L33.1517 38.1302L33.2536 37.9554C33.3847 37.7367 33.574 37.6701 33.782 37.6701C33.8672 37.6701 33.9546 37.6805 34.0461 37.6951C34.406 37.7659 34.9988 37.8616 35.5916 37.8616C36.2426 37.8616 36.8874 37.745 37.2306 37.3599C37.9336 38.403 39.3584 38.5696 39.2461 39.0985L38.8718 40.8849C39.1193 40.8745 39.3584 40.8579 39.5852 40.8266L39.9408 38.9672C39.9803 38.7654 40.0178 38.4926 40.0178 38.4926C39.8806 38.3531 39.5478 38.0574 39.3605 37.6992C39.1089 37.2162 39.2461 36.9642 39.0111 36.3354C39.0194 36.3396 39.0902 36.1939 39.2544 36.1939ZM31.9952 33.5828C31.8996 33.5807 31.8309 33.4995 31.8351 33.4038C31.8435 33.3122 31.9204 33.2393 32.014 33.2476C32.1097 33.2518 32.1782 33.3351 32.1742 33.4267C32.1658 33.5183 32.0868 33.5892 31.9952 33.5828Z" fill="white"/>
<path d="M29.3457 37.8843C29.3457 37.8843 29.9885 37.6199 30.0468 37.4303L29.9615 37.2159C29.9012 37.0764 29.9095 36.9245 30.026 36.8411L30.7207 36.3602L31.8814 36.5829C31.8814 36.5829 31.6713 36.3206 31.6921 35.9687L30.5855 35.7335L29.5413 36.3706C29.0942 36.7058 29.0608 37.2534 29.2085 37.5782L29.3457 37.8843Z" fill="white"/>
<path d="M37.5492 40.9117C37.7572 40.9034 37.986 40.8992 38.2378 40.8992C38.2378 40.8992 38.8347 39.1523 38.868 39.0961C38.5331 38.9483 37.8384 38.5798 37.5701 38.4111C37.747 38.6755 38.1774 38.9796 38.0922 39.2127L37.5492 40.9117Z" fill="white"/>
<path d="M43.2316 30.5513H26.7309V36.7644C26.7309 39.3046 28.5676 40.8953 31.2778 40.8953C33.543 40.8953 34.1399 40.9828 34.9823 41.8198C35.5625 41.241 36.0431 41.0245 37.029 40.9432L37.052 40.8475L37.5719 39.238C37.5428 39.2025 36.6922 38.2344 36.6922 38.2344C36.3551 38.3468 36.0723 38.3655 35.596 38.3655C35.1071 38.3655 34.5559 38.3093 33.959 38.1969C33.8986 38.1824 33.8425 38.1782 33.7863 38.1782C33.7135 38.1782 33.7072 38.1845 33.6885 38.2199L33.5845 38.3906L33.3952 38.7029L33.0396 38.6217L31.4567 38.249L31.2404 38.607L31.2736 38.6445L31.4671 38.8569L31.3819 39.1339C31.2654 39.4962 30.8868 39.9188 30.7724 40.0354L30.3772 40.4602L30.0173 40.0042L29.7469 39.6649C29.462 39.3463 29.3954 38.8569 29.5556 38.3447C29.5513 38.349 29.5452 38.351 29.539 38.351L29.0918 38.5363L28.89 38.0991L28.7485 37.7888C28.5051 37.2434 28.5946 36.4458 29.2498 35.9648L30.5249 35.2444L31.7376 35.4839C31.7667 35.3673 31.8103 34.9509 31.8456 34.8446C31.8228 34.8427 31.7999 34.8363 31.777 34.8363L31.0782 35.0965L30.4042 34.6302C30.4042 34.6302 30.1402 34.3763 30.3792 34.1222L31.0324 33.1331L29.3788 31.0552L31.9205 32.1004L32.089 31.8901L32.4323 31.48L32.8212 31.8506C32.9315 31.9567 32.9938 32.0879 33.025 32.219C33.7259 32.4918 34.9803 33.2976 35.0904 34.6074L34.6973 34.7656V34.776C34.7868 34.8821 34.8616 34.926 34.8846 34.93L36.6983 35.1091C36.7441 35.1008 36.8023 35.08 36.8668 35.0612C37.0915 34.9841 37.4305 34.8738 37.832 34.8738C38.1585 34.8738 38.4746 34.9488 38.7783 35.0904C38.8906 35.0487 39.0279 35.0175 39.186 35.0071L39.2734 35.005C40.2447 35.005 40.7272 35.7317 41.1142 36.3105C41.1787 36.4104 41.2431 36.5062 41.3097 36.5999C41.6487 37.0788 42.0918 37.7805 42.1105 37.8097L42.3101 38.1219L42.0648 38.4072C41.8755 38.6258 41.5926 38.882 41.1058 38.882C41.006 38.882 40.8958 38.8715 40.7772 38.8486C40.6732 38.8298 40.5797 38.7987 40.488 38.7612C40.4735 38.8569 40.4548 38.9714 40.4361 39.0693L40.1178 40.7308C42.021 40.2623 43.2295 38.8236 43.2295 36.7664L43.2316 30.5513Z" fill="#FFDD2D"/>
<path d="M26.7311 30.0516H39.5627C38.9219 29.3896 38.9303 28.5505 39.0946 28.0049C38.9074 27.9154 38.7535 27.8072 38.6163 27.6905C38.1149 28.0611 36.584 29.1771 36.1847 29.4562L36.0995 29.5145L31.0637 28.6025H30.9618C30.8412 28.6025 30.6644 28.5984 30.4709 28.5754C30.4169 28.8024 30.2213 28.9586 29.9967 28.9586C29.9717 28.9586 29.9426 28.9565 29.9155 28.9502C29.7845 28.9273 29.6701 28.8607 29.5931 28.7503C29.5141 28.6421 29.483 28.513 29.5059 28.3797L29.5246 28.2714C29.0045 27.905 28.5262 27.0867 28.7383 26.2247L28.7591 26.133L28.8318 26.0811C28.8422 26.0727 28.9296 26.0145 29.0587 25.9394L28.6925 25.8832C28.5553 25.8583 28.4637 25.7312 28.4846 25.5959C28.5075 25.4585 28.6364 25.3606 28.7716 25.3876L29.6431 25.5252L29.7222 22.4519L31.02 21.0776L31.8291 22.7829L30.9743 25.7396L31.7439 25.8604C31.8791 25.8811 31.9727 26.0082 31.9519 26.1477C31.9311 26.2706 31.8271 26.3558 31.7044 26.3558C31.6919 26.3558 31.6773 26.3558 31.6649 26.3539L31.0387 26.2518C31.0471 26.2706 31.0596 26.2809 31.0678 26.3018C31.1345 26.4391 31.2821 26.5391 31.3696 26.5807L35.2092 26.6412C35.3715 26.4829 35.7749 26.0872 36.1889 25.6688C35.2445 25.3106 34.9014 24.4944 34.843 23.9531C34.3148 23.7282 33.9508 23.3909 33.749 22.9515C33.5035 22.4081 33.591 21.8647 33.6554 21.6002C33.1437 21.4129 32.6051 21.0714 32.0559 20.5259H26.2735C26.521 21.1922 26.7311 21.9146 26.7311 22.633V30.0516Z" fill="#FFDD2D"/>
<path d="M32.016 33.2476C31.9224 33.2392 31.8433 33.3122 31.8371 33.4037C31.8308 33.4995 31.9015 33.5806 31.9973 33.5828C32.0887 33.591 32.1699 33.5202 32.1781 33.4265C32.1781 33.3349 32.1116 33.2496 32.016 33.2476Z" fill="black"/>
<path d="M43.2083 44.5137L42.2577 44.1494L42.5198 43.1666L42.8089 42.0943C42.8089 42.0943 41.1241 43.0084 38.7509 43.6954C38.0768 43.8892 37.5673 43.9766 37.5673 43.9766V44.7053C37.5673 44.7053 36.2984 44.926 35.0151 44.926H35.0006H34.9819H34.9569H34.9424C33.659 44.926 32.3902 44.7053 32.3902 44.7053V43.9766C32.3902 43.9766 31.8785 43.8892 31.2067 43.6954C28.8334 43.0084 27.1506 42.0943 27.1506 42.0943L27.4356 43.1666L27.704 44.1494L26.7513 44.5137L25.6946 44.9094C26.9073 45.4944 28.5859 46.3481 30.123 46.7687L29.7612 47.7599C29.7612 47.7599 31.71 48.6489 34.9569 48.6572V48.6593H34.9673H34.9819H34.9944H35.0028V48.6572C38.2537 48.6489 40.2006 47.7599 40.2006 47.7599L39.8366 46.7687C41.3738 46.3481 43.0565 45.4944 44.2629 44.9094L43.2083 44.5137ZM26.8221 44.976L28.3862 44.4555L27.9245 42.9459C28.6129 43.3374 30.1584 43.9246 31.0527 44.1973L30.2976 46.2731C28.9167 45.8921 27.7664 45.4486 26.8221 44.976ZM34.9819 48.1366C33.1661 48.1366 31.0923 47.7182 30.4828 47.5017L31.4105 44.9885C32.1801 45.2133 33.7817 45.4529 34.9444 45.4445H34.9466H34.9819H35.0131H35.0173C36.18 45.4529 37.7774 45.2133 38.5512 44.9885L39.4767 47.5017C38.8673 47.7202 36.7956 48.1366 34.9819 48.1366ZM39.6619 46.2731L38.909 44.1973C39.8055 43.9246 41.3467 43.3374 42.0372 42.9459L41.5776 44.4555L43.1396 44.976C42.1933 45.4486 41.0492 45.8921 39.6619 46.2731Z" fill="black"/>
<path d="M34.9798 5.28665C36.9142 5.28665 38.4618 5.92798 39.3166 6.61301C39.3166 6.61301 39.5703 5.08261 40.4377 3.73132L38.8798 3.90828L38.0645 2.17385L36.4982 2.98176L34.9798 1.47845L33.4655 2.98176L31.8972 2.17385L31.084 3.90828L29.5261 3.73132C30.3934 5.08261 30.6472 6.61301 30.6472 6.61301C31.5042 5.92798 33.0475 5.28665 34.9798 5.28665ZM31.0133 4.51632L31.4459 4.56214L31.633 4.16851L32.1781 3.00252L33.1889 3.52514L33.58 3.72512L33.892 3.41692L34.9819 2.3342L36.0739 3.41692L36.3859 3.72512L36.7769 3.52514L37.7815 3.00252L38.3328 4.16851L38.5158 4.56214L38.9485 4.51632L39.3602 4.46632C39.171 4.89314 39.0317 5.29704 38.9318 5.63232C37.8419 5.02427 36.4233 4.67871 34.9777 4.67871C33.5384 4.67871 32.1219 5.02427 31.0279 5.63232C30.9259 5.29704 30.7886 4.8911 30.5994 4.46632L31.0133 4.51632Z" fill="black"/>
<path d="M57.675 25.5935C60.1773 25.5935 61.0134 23.0449 61.0488 22.9367L61.3276 22.0393L60.3894 22.0684H60.3853C60.0545 22.0684 57.2945 21.9956 55.337 19.5053L55.1519 19.2742C53.8727 17.646 52.6601 16.099 50.4928 15.3931C50.5551 15.3369 50.6447 15.2661 50.7674 15.1869C51.9175 14.4291 52.5874 13.5088 52.7558 12.4407C53.0013 10.8331 51.9779 9.55264 51.9321 9.50062L51.2353 8.63865L50.8007 9.66098C50.7716 9.72553 50.0394 11.3622 48.5001 11.3622H48.3857C48.2797 11.3558 48.1798 11.3517 48.08 11.3434C48.1341 10.6125 48.0009 9.48188 46.9777 8.42209C45.7483 7.14574 44.2383 6.95422 43.4478 6.95422C43.0256 6.95422 42.7448 7.00624 42.7156 7.01042L41.6631 7.21863L42.3121 8.07439C42.8218 8.73446 43.2835 9.95248 42.7365 10.5897C42.5617 10.7916 42.2019 10.9561 41.8566 11.1206C41.1473 11.4474 40.1801 11.9014 40.1801 13.0589C40.1801 13.8086 40.7605 14.5915 41.813 15.2578C44.9288 17.2192 46.8508 19.2659 47.6806 21.525C48.964 25.0001 47.2896 26.9822 45.663 28.0254L44.933 28.4959L45.5714 29.0831C45.6568 29.1581 46.4388 29.8473 47.5933 29.9473C47.8116 29.9618 48.0217 29.9743 48.2172 29.9743C48.9577 29.9743 49.588 29.8577 50.0997 29.7015C49.9582 29.9493 49.7855 30.2012 49.5672 30.4553C48.6374 31.5338 47.4934 32.0251 45.8481 32.0502L45.2367 32.0606L45.1888 32.6749C45.1825 32.7976 45.1367 33.9366 46.2142 34.9048C46.3785 35.0547 46.5782 35.1776 46.7863 35.2796C46.0561 35.9375 45.3136 37.0827 45.1701 39.0461C45.0494 40.6847 44.6585 41.2907 44.6542 41.297L43.9782 42.3297L45.1993 42.3463C47.2167 42.3463 48.7622 41.7884 49.8334 40.6847C50.4657 40.0311 50.8277 39.294 51.0419 38.6401C51.3934 38.94 51.8469 39.2024 52.4376 39.3419C52.6623 39.3939 52.9076 39.4231 53.1718 39.4231C53.7417 39.4231 54.218 39.3022 54.2721 39.2898L55.0521 39.0815L54.7069 38.3528C54.6819 38.2945 54.0309 36.8329 54.7318 34.7466C55.0334 33.845 55.1873 33.0371 55.2622 32.4083C55.7531 32.6645 56.4104 32.8768 57.261 32.8789C59.1913 32.8789 60.0421 31.436 60.0816 31.3756L60.4622 30.7134L59.7571 30.422C57.4566 29.4662 56.947 26.899 56.8451 25.5081C57.0531 25.5477 57.2902 25.5851 57.5585 25.5935H57.675ZM59.4992 31.0363C59.4992 31.0363 58.8253 32.2085 57.2798 32.2085H57.261C55.4057 32.1981 54.6569 31.0653 54.6569 31.0653C54.6569 31.0653 54.7652 32.5395 54.0953 34.5279C53.2905 36.9244 54.1015 38.6381 54.1015 38.6381C54.1015 38.6381 53.669 38.7547 53.1697 38.7547C52.9785 38.7547 52.7788 38.736 52.5915 38.6859C51.0419 38.3175 50.6551 36.9057 50.6551 36.9057C50.6551 36.9057 50.7986 41.676 45.2429 41.676H45.1993C45.1993 41.676 45.6879 41.0096 45.8336 39.0919C46.0977 35.5524 48.4918 35.0672 48.4918 35.0672C48.4918 35.0672 47.2148 34.9069 46.6614 34.4092C45.7962 33.6243 45.8565 32.7165 45.8565 32.7165C47.8116 32.6894 49.0909 32.0232 50.0664 30.8925C51.1231 29.6682 51.2977 28.3502 51.2977 28.3502C51.2977 28.3502 50.2473 29.3039 48.2151 29.3039C48.0363 29.3039 47.8449 29.2955 47.6495 29.2768C46.6885 29.1998 46.0229 28.5876 46.0229 28.5876C48.1382 27.23 49.6233 24.8606 48.3068 21.2918C47.2522 18.433 44.7187 16.2967 42.1686 14.6872C41.32 14.1564 40.8478 13.5671 40.8478 13.0589C40.8478 11.8639 42.5451 11.8264 43.2418 11.0227C44.0448 10.0899 43.5414 8.57613 42.8446 7.66632C42.8446 7.66632 43.0796 7.61836 43.45 7.61836C44.1841 7.61836 45.455 7.80366 46.4992 8.88637C47.8866 10.3231 47.3104 11.8867 47.3104 11.8867L47.6827 11.9596C47.9053 12.0075 48.1258 12.0158 48.3546 12.0262C48.4046 12.0262 48.4543 12.0284 48.5043 12.0284C50.5198 12.0284 51.4204 9.91919 51.4204 9.91919C51.4204 9.91919 53.5629 12.5572 50.4096 14.6226C49.8667 14.9766 49.6276 15.3036 49.6899 15.6534L49.7398 15.8824L49.9644 15.9219C52.2504 16.5424 53.4069 18.1208 54.8192 19.9155C56.9637 22.6452 59.9984 22.7326 60.3728 22.7326H60.4124C60.4124 22.7326 59.7197 24.9209 57.6792 24.9209C57.6459 24.9209 57.6168 24.9209 57.5814 24.9189C56.6433 24.8855 56.1629 24.5253 56.1629 24.5253C56.1629 24.5253 55.7946 29.4953 59.4992 31.0363Z" fill="black"/>
<path d="M53.2799 15.6682C54.2138 16.1659 54.7568 16.8321 55.2331 17.4234C55.7011 18.0002 56.1462 18.5561 56.8409 18.7872C57.0884 18.8726 57.3505 18.9121 57.6168 18.9121C58.661 18.9121 59.7092 18.2729 60.1066 17.388L60.506 16.501L59.5386 16.4427C59.493 16.4406 58.2491 16.3282 56.8638 14.9103C56.2938 14.3294 55.6055 14.0233 54.8628 14.0233C53.9559 14.0233 53.2841 14.4772 53.2093 14.5229L52.319 15.1497L53.2799 15.6682ZM54.865 14.6937C55.3309 14.6937 55.8738 14.852 56.3875 15.3829C57.9995 17.0216 59.4991 17.1131 59.4991 17.1131C59.2267 17.717 58.4363 18.248 57.6188 18.248C57.4295 18.248 57.2403 18.2187 57.051 18.1542C55.9424 17.7794 55.5451 16.1137 53.5961 15.0769C53.5961 15.0769 54.1411 14.6937 54.865 14.6937Z" fill="black"/>
<path d="M53.7169 24.5152V24.5485C53.1553 20.0136 49.8647 16.7384 46.204 14.7458C45.8648 14.5646 45.5528 14.4106 45.2492 14.2628C46.3641 14.4355 48.1591 14.4564 49.5444 13.2529C49.5444 13.2529 47.4248 14.8145 43.0819 13.3966C44.284 14.1773 46.6199 15.2789 48.752 17.0632C54.0829 21.7523 50.2682 26.3267 50.2682 26.3267C52.1839 24.3257 52.2629 22.1811 51.6992 20.4301C52.7081 22.1103 53.3529 24.1508 53.2529 26.6661C53.1054 30.2702 51.1273 33.3872 49.0452 35.892C48.0447 37.1079 47.8201 38.6009 47.8201 38.6009C47.8201 38.6009 48.2236 37.2828 49.3821 35.9274C51.614 33.3123 53.5213 30.595 53.7709 26.6806C54.0019 27.3907 54.9524 29.3666 56.4604 30.11C56.4646 30.112 54.5696 28.9689 53.7169 24.5152Z" fill="black"/>
<path d="M25.3059 41.2948C25.3037 41.2886 24.9169 40.6827 24.7922 39.044C24.6464 37.0805 23.906 35.9354 23.1739 35.2775C23.386 35.1776 23.5815 35.0548 23.7458 34.9027C24.8213 33.9344 24.7755 32.7955 24.7693 32.6728L24.7277 32.0586L24.112 32.0482C22.4708 32.0211 21.3248 31.5296 20.3949 30.4532C20.1787 30.1991 20.0039 29.9471 19.8624 29.6995C20.3742 29.8556 21.0003 29.9722 21.7428 29.9722C21.9425 29.9722 22.1484 29.9597 22.3668 29.9452C23.5212 29.8451 24.3034 29.1581 24.3906 29.081L25.0292 28.4938L24.2992 28.0234C22.6664 26.9781 20.9982 24.9959 22.2794 21.5228C23.1094 19.2638 25.0292 17.2171 28.1492 15.2557C29.2016 14.5894 29.7779 13.8065 29.7779 13.0568C29.7779 11.8993 28.8127 11.4433 28.1035 11.1185C27.7582 10.954 27.3984 10.7895 27.2236 10.5876C26.6745 9.95244 27.1383 8.73239 27.6459 8.07231L28.299 7.21656L27.2424 7.00834C27.2112 7.00416 26.9346 6.95215 26.5102 6.95215C25.7198 6.95215 24.2139 7.14366 22.9825 8.42002C21.9571 9.48196 21.8218 10.6125 21.8739 11.3413C21.774 11.3496 21.6742 11.3537 21.5702 11.3601H21.4579C19.9145 11.3601 19.1845 9.72346 19.1554 9.6589L18.7207 8.63657L18.0175 9.49854C17.978 9.55057 16.9505 10.8332 17.2001 12.4386C17.3665 13.5067 18.0363 14.427 19.1865 15.1848C19.3113 15.2639 19.3987 15.3348 19.4611 15.391C17.2957 16.0969 16.0853 17.646 14.806 19.2742L14.6209 19.5053C12.6657 21.9955 9.89934 22.0684 9.56863 22.0684L8.62634 22.0393L8.91338 22.9366C8.94664 23.0449 9.78074 25.5934 12.285 25.5934L12.4057 25.5892C12.6699 25.581 12.907 25.5456 13.1192 25.504C13.0152 26.8927 12.5056 29.46 10.2029 30.4178L9.49998 30.7093L9.88064 31.3713C9.91804 31.4317 10.7709 32.8747 12.7052 32.8747C13.5496 32.8726 14.2069 32.6602 14.6999 32.4042C14.7748 33.033 14.9287 33.8408 15.2304 34.7423C15.9313 36.8286 15.2783 38.2903 15.2532 38.3487L14.9081 39.0774L15.69 39.2855C15.742 39.2981 16.2225 39.4188 16.7904 39.4188C17.0566 39.4188 17.3021 39.3897 17.5226 39.3376C18.1153 39.1981 18.5729 38.9359 18.9203 38.636C19.1324 39.2898 19.4965 40.0268 20.1267 40.6807C21.2 41.7841 22.7434 42.3422 24.7609 42.3422L25.984 42.3255L25.3059 41.2948ZM24.7151 41.6759C19.1595 41.6759 19.301 36.9057 19.301 36.9057C19.301 36.9057 18.914 38.3174 17.3644 38.686C17.1793 38.7358 16.9817 38.7546 16.7883 38.7546C16.289 38.7546 15.8585 38.638 15.8585 38.638C15.8585 38.638 16.6656 36.9245 15.8606 34.5279C15.195 32.5395 15.3031 31.0653 15.3031 31.0653C15.3031 31.0653 14.5564 32.198 12.699 32.2083H12.6803C11.1348 32.2083 10.4609 31.0361 10.4609 31.0361C14.1633 29.4975 13.7993 24.5294 13.7993 24.5294C13.7993 24.5294 13.3189 24.8877 12.3786 24.923C12.3454 24.9251 12.3142 24.9251 12.281 24.9251C10.2384 24.9251 9.54781 22.7368 9.54781 22.7368H9.58936C9.96587 22.7368 12.9965 22.6493 15.1409 19.9196C16.5532 18.1248 17.7118 16.5486 19.9936 15.9261L20.2224 15.8866L20.2722 15.6576C20.3347 15.3078 20.0976 14.9808 19.5547 14.6269C16.4014 12.5593 18.5438 9.92332 18.5438 9.92332C18.5438 9.92332 19.4403 12.0304 21.4601 12.0304C21.5098 12.0304 21.5556 12.0284 21.6076 12.0284C21.8344 12.0158 22.0591 12.0076 22.2794 11.9596L22.6518 11.8867C22.6518 11.8867 22.0756 10.323 23.4651 8.88643C24.5093 7.80159 25.7801 7.61842 26.5122 7.61842C26.8846 7.61842 27.1155 7.66627 27.1155 7.66627C26.4208 8.57824 25.9175 10.0899 26.7203 11.0227C27.415 11.8243 29.1102 11.8639 29.1102 13.059C29.1102 13.565 28.6381 14.1563 27.7894 14.6872C25.2372 16.2968 22.7038 18.4331 21.6512 21.2917C20.3368 24.8606 21.8199 27.2279 23.9394 28.5876C23.9394 28.5876 23.2737 29.1998 22.3107 29.2768C22.1152 29.2955 21.9259 29.3037 21.7428 29.3037C19.7127 29.3037 18.6624 28.3502 18.6624 28.3502C18.6624 28.3502 18.837 29.6682 19.8875 30.8925C20.8693 32.023 22.1484 32.6894 24.1037 32.7164C24.1037 32.7164 24.166 33.6242 23.3008 34.4092C22.7454 34.9048 21.4683 35.0671 21.4683 35.0671C21.4683 35.0671 23.8645 35.5523 24.1265 39.0919C24.2701 41.0096 24.7547 41.6759 24.7547 41.6759H24.7151Z" fill="black"/>
<path d="M12.3413 18.9143C12.6095 18.9143 12.8716 18.8748 13.1192 18.7893C13.818 18.5582 14.2611 18.0022 14.7291 17.4256C15.2075 16.8343 15.7462 16.1679 16.6801 15.6703L17.641 15.1538L16.7488 14.5272C16.6739 14.4794 16.0042 14.0275 15.0994 14.0275C14.3547 14.0275 13.6642 14.3316 13.0962 14.9145C11.7111 16.3304 10.4694 16.4449 10.4235 16.447L9.45636 16.5031L9.85359 17.3922C10.2529 18.273 11.2991 18.9143 12.3413 18.9143ZM13.5727 15.3851C14.0885 14.8542 14.6313 14.6959 15.0994 14.6959C15.819 14.6959 16.3641 15.0789 16.3641 15.0789C14.417 16.118 14.0177 17.7815 12.9049 18.1564C12.7219 18.2209 12.5305 18.2501 12.3413 18.2501C11.5239 18.2501 10.7334 17.7212 10.463 17.1153C10.463 17.1132 11.9606 17.0216 13.5727 15.3851Z" fill="black"/>
<path d="M16.7069 26.6681C16.6028 24.1529 17.2477 22.1124 18.2585 20.4322C17.6949 22.1832 17.7718 24.3278 19.6896 26.3287C19.6896 26.3287 15.8749 21.7543 21.208 17.0653C23.3421 15.281 25.6758 14.1794 26.8759 13.3987C22.5351 14.8166 20.4156 13.255 20.4156 13.255C21.8008 14.4585 23.5958 14.4376 24.7107 14.2627C24.4092 14.4105 24.093 14.5647 23.758 14.7458C20.0931 16.7384 16.8046 20.0137 16.241 24.5485V24.5131C15.3902 28.9668 13.4974 30.1099 13.4974 30.1099C15.0034 29.3665 15.9518 27.3927 16.1828 26.6806C16.4344 30.595 18.3417 33.3122 20.5736 35.9274C21.7321 37.2829 22.1398 38.6008 22.1398 38.6008C22.1398 38.6008 21.9131 37.108 20.9084 35.892C18.8305 33.3913 16.8524 30.2723 16.7069 26.6681Z" fill="black"/>
<path d="M33.7259 17.4922V18.3917C34.0359 18.0147 34.635 18.0918 34.635 18.0918V19.389C34.635 19.389 34.6141 20.0261 34.3875 20.3031H35.0363H35.6832C35.4607 20.0281 35.4378 19.389 35.4378 19.389V18.0918C35.4378 18.0918 36.0368 18.0147 36.3447 18.3917V17.4922H35.0363H33.7259Z" fill="black"/>
<path d="M33.1682 12.1576C33.582 12.4866 33.8212 12.5408 33.8295 12.547L33.9918 12.6219V11.7745L32.4692 11.1332C32.4692 11.1353 32.4838 11.6246 33.1682 12.1576Z" fill="black"/>
<path d="M36.7903 12.1576C37.4788 11.6246 37.4912 11.1332 37.4912 11.1332L35.9687 11.7745V12.6219L36.1289 12.547C36.1393 12.5408 36.3764 12.4866 36.7903 12.1576Z" fill="black"/>
<path d="M39.5328 8.70754C39.5328 7.42294 37.3716 6.26733 34.9859 6.26733H34.9838H34.9776H34.9713C32.5856 6.26733 30.4245 7.42294 30.4245 8.70754L30.4724 9.0241L31.4249 14.498L30.4682 15.0539L27.9929 16.501H28.0012C28.0012 16.501 27.4439 16.7863 27.1859 16.9632C26.2437 17.6192 26.044 18.5748 26.5911 18.9705C26.7263 18.1916 27.3419 17.3755 28.4943 17.3755C29.3242 17.3755 29.9565 17.8045 30.4682 18.4479C30.5992 18.6102 30.724 18.783 30.8405 18.9705C30.984 19.2057 31.1275 19.4118 31.2711 19.6117H24.8959C25.3639 20.5549 25.8089 21.5543 25.8089 22.6392V36.7643C25.8089 40.1832 28.436 41.8156 31.2773 41.8156C33.4738 41.8156 33.7691 41.7158 34.9817 42.9234C36.1881 41.7136 36.4835 41.8156 38.682 41.8156C41.5254 41.8156 44.1482 40.1832 44.1482 36.7643V22.6392C44.1482 21.5543 44.5935 20.5549 45.0634 19.6117H38.6863C38.8277 19.414 38.9712 19.2057 39.1148 18.9705C39.2332 18.783 39.3559 18.6102 39.485 18.4479C40.0009 17.8023 40.631 17.3755 41.4609 17.3755C42.6132 17.3755 43.2268 18.1896 43.3641 18.9705C43.9111 18.5748 43.7136 17.6192 42.7651 16.9632C42.5113 16.7863 41.9539 16.501 41.9539 16.501H41.9622L39.487 15.0539L38.5344 14.498L39.487 9.0241L39.5328 8.70754ZM31.3625 9.34471L34.7114 10.4815V15.7473L32.2466 14.446L31.3625 9.34471ZM32.0552 20.5299C32.6043 21.0775 33.1431 21.417 33.6548 21.6043C33.5881 21.8687 33.5008 22.4143 33.7483 22.9577C33.9501 23.3949 34.3161 23.7322 34.8424 23.9572C34.9007 24.4985 35.2418 25.3126 36.1881 25.6729C35.7742 26.0913 35.3706 26.4848 35.2064 26.6452L31.3688 26.5848C31.2815 26.541 31.1337 26.4432 31.0672 26.3037C31.0588 26.285 31.0464 26.2746 31.0401 26.2537L31.6663 26.3557C31.6809 26.3579 31.6932 26.3579 31.7058 26.3579C31.8264 26.3579 31.9325 26.2746 31.9533 26.1497C31.9742 26.0101 31.8805 25.8831 31.7453 25.8623L30.9758 25.7415L31.8306 22.787L31.0214 21.0817L29.7235 22.4559L29.6445 25.5292L28.773 25.3918C28.6377 25.3647 28.5088 25.4646 28.486 25.6C28.4652 25.7353 28.5566 25.8623 28.694 25.8873L29.06 25.9435C28.929 26.0185 28.8437 26.0767 28.8332 26.0851L28.7584 26.1372L28.7376 26.2288C28.5254 27.0907 29.0059 27.9091 29.5238 28.2754L29.505 28.3838C29.4844 28.5169 29.5134 28.646 29.5924 28.7544C29.6673 28.8648 29.7838 28.9314 29.9128 28.9542C29.9399 28.9585 29.969 28.9605 29.9939 28.9605C30.2185 28.9605 30.4141 28.8044 30.4702 28.5775C30.6637 28.6002 30.8405 28.6044 30.961 28.6044H31.063L36.0987 29.5143L36.184 29.4581C36.5855 29.177 38.1142 28.061 38.6155 27.6925C38.7528 27.8112 38.9067 27.9194 39.0939 28.009C38.9316 28.5545 38.9212 29.3936 39.5639 30.0557H26.7304V22.6412C26.7304 21.9228 26.5203 21.2004 26.2728 20.5342H32.0552V20.5299ZM38.2785 27.3135C37.7689 27.6883 36.4585 28.646 35.9843 28.9793L31.4083 28.1569C31.4188 28.1152 31.4291 28.0756 31.4395 28.0339C31.4999 27.7967 31.5602 27.4718 31.5644 27.0907L35.4102 27.1533L35.483 27.0782C35.5413 27.02 36.7601 25.8415 37.382 25.1626C37.5297 25.348 37.7149 25.5251 37.9562 25.6811C37.873 26.131 37.9083 26.7722 38.2785 27.3135ZM30.6179 26.5203C30.7261 26.7472 30.9216 26.8992 31.0568 26.9846C31.0527 27.1969 31.0319 27.528 30.9758 27.8195C30.9632 27.8841 30.9465 27.9445 30.9278 28.0048C30.9174 28.0423 30.9071 28.0736 30.8987 28.0985C30.697 28.0985 30.2997 28.0736 29.9752 27.9549C29.6154 27.8216 29.0787 27.1615 29.2035 26.4349C29.3595 26.3391 29.7193 26.1372 30.0563 26.1372C30.3163 26.1351 30.4931 26.2579 30.6179 26.5203ZM30.1416 25.6062L30.2185 22.6558L30.88 21.9541L31.296 22.8245L30.4765 25.6561L30.1416 25.6062ZM38.237 40.9016C37.9873 40.9016 37.7566 40.9058 37.5484 40.914L38.0934 39.2172C38.1787 38.9818 37.7481 38.6799 37.5714 38.4155C37.8396 38.5842 38.5344 38.9526 38.8693 39.1005C38.8338 39.1547 38.237 40.9016 38.237 40.9016ZM39.9467 38.9735L39.5911 40.8308C39.3642 40.862 39.123 40.8787 38.8755 40.889L39.25 39.1026C39.3623 38.5716 37.9374 38.4071 37.2344 37.364C36.8912 37.7513 36.2444 37.8658 35.5953 37.8658C35.0025 37.8658 34.4098 37.77 34.0498 37.6992C33.9584 37.6847 33.871 37.6743 33.7858 37.6743C33.5777 37.6743 33.3885 37.7388 33.2575 37.9595L33.1534 38.1343L31.2128 37.6762L30.7302 38.4759C30.6616 38.605 30.6574 38.7153 30.7677 38.8361L30.8987 38.9797C30.8093 39.2629 30.4058 39.6898 30.4058 39.6898L30.1166 39.3296C29.8878 39.0734 29.9252 38.6071 30.1645 38.174L30.9341 36.8727L32.5773 37.11L32.3214 36.527C31.9782 35.7566 32.5003 34.7759 32.5564 34.2117C32.5377 34.3823 32.3818 34.4199 32.1987 34.4199C32.0324 34.4199 31.8472 34.3887 31.7245 34.3887C31.6767 34.3887 31.635 34.3928 31.6122 34.4094L31.1671 34.6801L30.8154 34.37C30.7739 34.3095 30.7593 34.17 30.8633 34.0659L31.6767 33.1539L30.7157 32.0317L32.0614 32.7084L32.4712 32.2107C32.5835 32.3211 32.5357 32.6105 32.5357 32.6105C32.9558 32.6209 34.1331 33.2726 34.1956 34.7925C34.1997 34.8384 34.1997 34.8904 34.1997 34.9404C34.1997 34.9404 34.2102 34.9591 34.2308 34.9904C34.3141 35.105 34.5429 35.3985 34.834 35.4255L36.6936 35.6089H36.7019C36.9057 35.6089 37.3113 35.3693 37.8314 35.3693C38.1142 35.3693 38.4304 35.4422 38.7673 35.6546C38.7673 35.6546 38.9358 35.5214 39.2104 35.5066C39.2313 35.5047 39.2541 35.5047 39.2749 35.5047C40.109 35.5047 40.4543 36.2584 40.9015 36.885C41.2384 37.3619 41.6876 38.0699 41.6876 38.0699C41.5213 38.2676 41.3673 38.3759 41.1094 38.3759C41.0387 38.3759 40.9576 38.3696 40.8702 38.3531C39.9758 38.1885 39.8469 36.3479 39.3372 36.2022C39.3103 36.1939 39.2811 36.1918 39.2562 36.1918C39.0918 36.1918 39.019 36.3375 39.019 36.3375C39.2519 36.9643 39.1168 37.2183 39.3664 37.7014C39.5537 38.0594 39.8864 38.3551 40.0236 38.4946C40.0236 38.4987 39.9862 38.7695 39.9467 38.9735ZM29.9606 37.2162L30.0458 37.4306C29.9897 37.6181 29.3449 37.8845 29.3449 37.8845L29.2056 37.5806C29.0579 37.2558 29.0891 36.7081 29.5385 36.3729L30.5825 35.7358L31.6891 35.9711C31.6683 36.323 31.8784 36.5854 31.8784 36.5854L30.7177 36.3625L30.023 36.8434C29.9065 36.9247 29.8983 37.0767 29.9606 37.2162ZM40.1214 40.7288L40.4397 39.0672C40.4563 38.9694 40.4771 38.8548 40.4917 38.7591C40.5812 38.7965 40.6767 38.8277 40.7809 38.8465C40.8993 38.8693 41.0096 38.8798 41.1094 38.8798C41.5961 38.8798 41.879 38.6237 42.0683 38.4051L42.3137 38.1198L42.114 37.8075C42.0953 37.7763 41.6544 37.0767 41.3133 36.5977C41.2467 36.504 41.1822 36.4104 41.1177 36.3084C40.7309 35.7296 40.2462 35.003 39.2749 35.003L39.1875 35.0049C39.0274 35.0153 38.89 35.0466 38.7798 35.0882C38.474 34.9446 38.16 34.8717 37.8335 34.8717C37.432 34.8717 37.0929 34.9821 36.8683 35.0592C36.8038 35.0779 36.7456 35.0986 36.6998 35.1069L34.884 34.9279C34.8611 34.9237 34.7862 34.88 34.6968 34.7718V34.7634L35.0899 34.6052C34.9798 33.2955 33.7233 32.4898 33.0223 32.217C32.9912 32.0858 32.9288 31.9547 32.8185 31.8484L32.4275 31.4778L32.0843 31.8901L31.9159 32.1003L29.374 31.0552L31.0277 33.133L30.3746 34.1221C30.1353 34.3761 30.3995 34.6302 30.3995 34.6302L31.0734 35.0945L31.7723 34.8342C31.7973 34.8342 31.8181 34.8404 31.841 34.8426C31.8077 34.9487 31.7641 35.3652 31.7349 35.4817L30.5222 35.2423L29.2471 35.9628C28.592 36.4437 28.5026 37.2411 28.7459 37.7867L28.8873 38.0969L29.0891 38.5341L29.5342 38.3489C29.5405 38.3467 29.5467 38.3447 29.5508 38.3405C29.3907 38.8527 29.4553 39.34 29.7422 39.6605L30.0126 40.0021L30.3724 40.4581L30.7677 40.0333C30.8841 39.9168 31.2607 39.494 31.3771 39.1317L31.4625 38.8548L31.2689 38.6424L31.2378 38.605L31.454 38.2468L33.0369 38.6195L33.3925 38.7007L33.5819 38.3884L33.6859 38.2176C33.7046 38.1823 33.7109 38.176 33.7836 38.176C33.8398 38.176 33.896 38.1823 33.9563 38.1949C34.5532 38.3073 35.1044 38.3635 35.5933 38.3635C36.0675 38.3635 36.3503 38.3447 36.6895 38.2323C36.6895 38.2323 37.5401 39.1983 37.5692 39.2359L37.0493 40.8432L37.0263 40.9411C36.0405 41.0202 35.56 41.2368 34.9798 41.8178C34.1372 40.9808 33.5403 40.8932 31.2752 40.8932C28.5649 40.8932 26.7282 39.3025 26.7282 36.7623V30.5513H43.2268L43.2311 36.7623C43.2331 38.8235 42.0246 40.2603 40.1214 40.7288ZM43.6887 20.5299C43.4369 21.1963 43.2268 21.9187 43.2268 22.637L43.2289 27.2719C42.2618 27.1094 42.1473 26.0663 42.1432 26.0205L42.1245 25.8081L41.9165 25.7894C41.4963 25.7498 41.2176 25.5709 40.9825 25.3417C40.5083 24.867 40.5062 24.0967 40.5083 24.0905C40.5021 24.1299 39.9862 24.8524 40.5853 25.6416C40.837 25.9747 41.2009 26.1787 41.6731 26.2601C41.7833 26.8388 42.2139 27.655 43.2289 27.7799V30.0495H40.3752C39.0586 29.3165 39.616 28.0256 39.643 27.9716L39.7553 27.7257L39.5037 27.6301C38.0789 27.1011 38.4699 25.677 38.4907 25.6167L38.5489 25.4084L38.3556 25.3168C37.1782 24.7713 37.3384 23.2993 37.3529 23.2387C36.9911 23.5324 36.8601 24.1321 37.1096 24.7192C36.9744 24.8733 36.7934 25.0606 36.5959 25.2647C35.377 24.9545 35.3396 23.8322 35.3396 23.7802L35.3374 23.6074L35.1773 23.5449C34.701 23.3678 34.3744 23.1035 34.2143 22.7474C34.0333 22.3539 34.0978 21.9416 34.1476 21.7438C34.287 21.775 34.4264 21.798 34.5596 21.8084C34.6968 21.8229 34.8382 21.8312 34.9798 21.8312H34.988H34.9985C35.1399 21.8312 35.2792 21.8229 35.4165 21.8084C36.1757 21.7334 37.0263 21.4065 37.9124 20.5278H43.6887V20.5299ZM39.2416 15.8451L40.3689 16.501H40.3856L40.6685 16.6655C40.0319 16.8425 39.5452 17.1611 39.1376 17.5795C39.123 17.5921 39.1084 17.6087 39.0939 17.6233C39.0003 17.7233 38.9067 17.8315 38.8193 17.9418C38.8028 17.9627 38.786 17.9855 38.7673 18.0085C38.6799 18.1209 38.5989 18.2355 38.5198 18.3562C38.5073 18.377 38.4927 18.3978 38.4782 18.4166C38.3847 18.556 38.2952 18.706 38.2057 18.86C37.4029 20.2447 36.1215 21.0713 34.9817 21.0734C33.844 21.0713 32.5628 20.2447 31.7599 18.86C31.6724 18.7103 31.5851 18.5644 31.4915 18.4227C31.4727 18.3958 31.4562 18.3687 31.4395 18.3458C31.3605 18.2313 31.2815 18.1189 31.2003 18.0126C31.1795 17.9835 31.1608 17.9606 31.14 17.9356C31.0527 17.8294 30.9632 17.7233 30.8737 17.6254C30.855 17.6108 30.8426 17.5921 30.8239 17.5753C30.4141 17.1569 29.9294 16.8403 29.2909 16.6655L29.5779 16.501H29.5904L30.7177 15.8451L31.8764 15.181L34.9713 16.8674L34.9776 16.8612L34.9859 16.8674L38.0809 15.181L39.2416 15.8451ZM37.7149 14.448L35.2479 15.7493V10.4815L38.5946 9.34471L37.7149 14.448ZM34.9798 9.90276L31.3105 8.45148C31.6226 7.7123 33.0619 7.08349 34.9798 7.08145C36.8995 7.08349 38.3388 7.7123 38.6488 8.45148L34.9798 9.90276Z" fill="black"/>
<path d="M6.60004 69.72V63.2019H10.4193V60.8302H0V63.2019H3.81909V69.72H6.60004ZM14.3131 60.8302H11.5322V69.72H14.3131V60.8302ZM16.3482 60.8302V69.72H18.9066V64.8081L23.6712 69.72H26.0444V60.8302H23.4859V65.7045L18.8325 60.8302H16.3482ZM31.5101 66.3582L34.7173 69.72H38.2955L33.8275 65.0883L38.1287 60.8302H34.7544L31.5101 64.1731H30.7684V60.8302H28.0802V69.72H30.7684V66.3582H31.5101ZM43.8269 60.5873C40.2118 60.5873 38.0426 62.6416 38.0426 65.2937C38.0426 67.9457 40.2118 70 43.8269 70C47.4236 70 49.5928 67.9457 49.5928 65.2937C49.5928 62.6416 47.4236 60.5873 43.8269 60.5873ZM43.8269 67.8336C42.0287 67.8336 40.8792 66.7504 40.8792 65.2937C40.8792 63.837 42.0287 62.7725 43.8269 62.7725C45.6068 62.7725 46.7747 63.837 46.7747 65.2937C46.7747 66.7504 45.6068 67.8336 43.8269 67.8336ZM59.7877 60.8302H50.8702V69.72H53.5584V66.6197H59.3983V64.6587H53.5584V63.0898H59.7877V60.8302ZM69.9084 60.8302H60.9908V69.72H63.6791V66.6197H69.5191V64.6587H63.6791V63.0898H69.9084V60.8302Z" fill="black"/>
</g>
<path d="M16.6309 78.0801V85H14.9023V78.0801H12.2363V76.7441H19.3027V78.0801H16.6309ZM21.3066 82.8906L20.5742 85H18.8457L21.8574 76.7441H23.8965L26.8965 85H25.1855L24.4531 82.8906H21.3066ZM22.877 78.0156C22.8379 78.1719 22.7832 78.3594 22.7129 78.5781C22.6426 78.7969 22.5918 78.9512 22.5605 79.041L21.6934 81.5898H24.0664L23.1758 78.9883C23.1211 78.8281 23.0703 78.666 23.0234 78.502C22.9766 78.3379 22.9277 78.1758 22.877 78.0156ZM34.7539 82.6211C34.7539 83.4297 34.4531 84.0488 33.8516 84.4785C33.2539 84.9043 32.375 85.1172 31.2148 85.1172C29.125 85.1172 27.9082 84.3613 27.5645 82.8496L29.2344 82.5742C29.3477 83.0117 29.5684 83.3301 29.8965 83.5293C30.2246 83.7246 30.6797 83.8223 31.2617 83.8223C31.8672 83.8223 32.3203 83.7305 32.6211 83.5469C32.9219 83.3633 33.0723 83.0879 33.0723 82.7207C33.0723 82.4863 33.0039 82.293 32.8672 82.1406C32.7305 81.9883 32.5352 81.8613 32.2812 81.7598C32.1562 81.709 31.9727 81.6543 31.7305 81.5957C31.4883 81.5332 31.1875 81.4648 30.8281 81.3906C30.4141 81.293 30.0898 81.2109 29.8555 81.1445C29.6211 81.0742 29.4336 81.0078 29.293 80.9453C29.1523 80.8789 29.0156 80.8066 28.8828 80.7285C28.5898 80.5527 28.3613 80.3184 28.1973 80.0254C28.0332 79.7324 27.9512 79.3672 27.9512 78.9297C27.9512 78.1836 28.2305 77.6133 28.7891 77.2188C29.3516 76.8203 30.168 76.6211 31.2383 76.6211C32.2617 76.6211 33.0293 76.7812 33.541 77.1016C34.0566 77.4219 34.3887 77.9512 34.5371 78.6895L32.8613 78.918C32.7754 78.5625 32.5996 78.2949 32.334 78.1152C32.0723 77.9355 31.6953 77.8457 31.2031 77.8457C30.6797 77.8457 30.2871 77.9277 30.0254 78.0918C29.7637 78.2559 29.6328 78.502 29.6328 78.8301C29.6328 79.0449 29.6875 79.2207 29.7969 79.3574C29.9102 79.4941 30.0762 79.6113 30.2949 79.709C30.502 79.8027 30.9453 79.9219 31.625 80.0664C32.0195 80.1523 32.3594 80.2344 32.6445 80.3125C32.9297 80.3867 33.1582 80.459 33.3301 80.5293C33.502 80.6035 33.6543 80.6816 33.7871 80.7637C33.9238 80.8457 34.041 80.9336 34.1387 81.0273C34.3379 81.2188 34.4902 81.4473 34.5957 81.7129C34.7012 81.9746 34.7539 82.2773 34.7539 82.6211ZM37.7539 81.9883V85H36.0254V76.7441H37.7539V80.4883L41.4746 76.7441H43.4902L39.9629 80.2363L43.7773 85H41.7383L38.7734 81.209L37.7539 81.9883ZM51.4297 82.6211C51.4297 83.4297 51.1289 84.0488 50.5273 84.4785C49.9297 84.9043 49.0508 85.1172 47.8906 85.1172C45.8008 85.1172 44.584 84.3613 44.2402 82.8496L45.9102 82.5742C46.0234 83.0117 46.2441 83.3301 46.5723 83.5293C46.9004 83.7246 47.3555 83.8223 47.9375 83.8223C48.543 83.8223 48.9961 83.7305 49.2969 83.5469C49.5977 83.3633 49.748 83.0879 49.748 82.7207C49.748 82.4863 49.6797 82.293 49.543 82.1406C49.4062 81.9883 49.2109 81.8613 48.957 81.7598C48.832 81.709 48.6484 81.6543 48.4062 81.5957C48.1641 81.5332 47.8633 81.4648 47.5039 81.3906C47.0898 81.293 46.7656 81.2109 46.5312 81.1445C46.2969 81.0742 46.1094 81.0078 45.9688 80.9453C45.8281 80.8789 45.6914 80.8066 45.5586 80.7285C45.2656 80.5527 45.0371 80.3184 44.873 80.0254C44.709 79.7324 44.627 79.3672 44.627 78.9297C44.627 78.1836 44.9062 77.6133 45.4648 77.2188C46.0273 76.8203 46.8438 76.6211 47.9141 76.6211C48.9375 76.6211 49.7051 76.7812 50.2168 77.1016C50.7324 77.4219 51.0645 77.9512 51.2129 78.6895L49.5371 78.918C49.4512 78.5625 49.2754 78.2949 49.0098 78.1152C48.748 77.9355 48.3711 77.8457 47.8789 77.8457C47.3555 77.8457 46.9629 77.9277 46.7012 78.0918C46.4395 78.2559 46.3086 78.502 46.3086 78.8301C46.3086 79.0449 46.3633 79.2207 46.4727 79.3574C46.5859 79.4941 46.752 79.6113 46.9707 79.709C47.1777 79.8027 47.6211 79.9219 48.3008 80.0664C48.6953 80.1523 49.0352 80.2344 49.3203 80.3125C49.6055 80.3867 49.834 80.459 50.0059 80.5293C50.1777 80.6035 50.3301 80.6816 50.4629 80.7637C50.5996 80.8457 50.7168 80.9336 50.8145 81.0273C51.0137 81.2188 51.166 81.4473 51.2715 81.7129C51.377 81.9746 51.4297 82.2773 51.4297 82.6211Z" fill="black"/>
<defs>
<clipPath id="clip0_110_3">
<rect width="70" height="70" fill="white"/>
</clipPath>
</defs>
</svg>
